<?xml version="1.0" standalone="no"?>
<!DOCTYPE svg PUBLIC "-//W3C//DTD SVG 20010904//EN"
 "http://www.w3.org/TR/2001/REC-SVG-20010904/DTD/svg10.dtd">
<svg version="1.0" xmlns="http://www.w3.org/2000/svg"
 width="512.000000pt" height="512.000000pt" viewBox="0 0 512.000000 512.000000"
 preserveAspectRatio="xMidYMid meet">
<metadata>
Created by potrace 1.11, written by Peter Selinger 2001-2013
</metadata>
<g transform="translate(0.000000,512.000000) scale(0.100000,-0.100000)"
fill="#000000" stroke="none">
<path d="M495 4864 c-35 -18 -73 -59 -86 -92 -14 -37 -11 -4390 4 -4431 7 -19
29 -48 50 -65 l39 -31 2057 0 2058 0 37 29 c72 54 66 -136 64 2298 l-3 2203
-22 31 c-12 17 -35 40 -50 50 -27 18 -89 19 -2073 21 -1835 3 -2048 1 -2075
-13z"/>
</g>
</svg>
